<mxfile host="app.diagrams.net" modified="2023-02-06T02:21:34.606Z" agent="5.0 (X11; Linux x86_64) AppleWebKit/537.36 (KHTML, like Gecko) Chrome/108.0.0.0 Safari/537.36" etag="Eg6YTFGfhos1y-RUq9E2" version="20.6.0" type="github">
  <diagram id="C5RBs43oDa-KdzZeNtuy" name="Page-1">
    <mxGraphModel dx="1350" dy="1913" grid="1" gridSize="10" guides="1" tooltips="1" connect="1" arrows="1" fold="1" page="1" pageScale="1" pageWidth="827" pageHeight="1169" math="0" shadow="0">
      <root>
        <mxCell id="WIyWlLk6GJQsqaUBKTNV-0" />
        <mxCell id="WIyWlLk6GJQsqaUBKTNV-1" parent="WIyWlLk6GJQsqaUBKTNV-0" />
        <mxCell id="zuYxjx-_k26lUVq1GKM3-11" value="" style="endArrow=block;html=1;rounded=0;strokeWidth=7;fontSize=28;endFill=1;" edge="1" parent="WIyWlLk6GJQsqaUBKTNV-1">
          <mxGeometry width="50" height="50" relative="1" as="geometry">
            <mxPoint x="440" y="-210" as="sourcePoint" />
            <mxPoint x="520" y="-210" as="targetPoint" />
          </mxGeometry>
        </mxCell>
        <mxCell id="zuYxjx-_k26lUVq1GKM3-19" value="&lt;font size=&quot;1&quot; style=&quot;&quot;&gt;&lt;b style=&quot;font-size: 28px;&quot;&gt;D&lt;sub&gt;1&lt;/sub&gt;&lt;/b&gt;&lt;/font&gt;" style="shape=note;whiteSpace=wrap;html=1;backgroundOutline=1;darkOpacity=0.05;strokeWidth=3;" vertex="1" parent="WIyWlLk6GJQsqaUBKTNV-1">
          <mxGeometry x="40" y="-200" width="80" height="100" as="geometry" />
        </mxCell>
        <mxCell id="zuYxjx-_k26lUVq1GKM3-20" value="&lt;font size=&quot;1&quot; style=&quot;&quot;&gt;&lt;b style=&quot;font-size: 28px;&quot;&gt;D&lt;sub&gt;2&lt;/sub&gt;&lt;/b&gt;&lt;/font&gt;" style="shape=note;whiteSpace=wrap;html=1;backgroundOutline=1;darkOpacity=0.05;strokeWidth=3;" vertex="1" parent="WIyWlLk6GJQsqaUBKTNV-1">
          <mxGeometry x="170" y="-200" width="80" height="100" as="geometry" />
        </mxCell>
        <mxCell id="zuYxjx-_k26lUVq1GKM3-21" style="edgeStyle=orthogonalEdgeStyle;rounded=0;orthogonalLoop=1;jettySize=auto;html=1;exitX=0.5;exitY=1;exitDx=0;exitDy=0;strokeWidth=3;fontSize=28;" edge="1" parent="WIyWlLk6GJQsqaUBKTNV-1">
          <mxGeometry relative="1" as="geometry">
            <mxPoint x="130" y="-140" as="sourcePoint" />
            <mxPoint x="130" y="-140" as="targetPoint" />
          </mxGeometry>
        </mxCell>
        <mxCell id="zuYxjx-_k26lUVq1GKM3-22" value="&lt;font style=&quot;font-size: 20px;&quot;&gt;Annotator A&lt;sub&gt;1&lt;/sub&gt;&lt;/font&gt;" style="shape=umlActor;verticalLabelPosition=bottom;verticalAlign=top;html=1;outlineConnect=0;strokeWidth=3;fontSize=28;" vertex="1" parent="WIyWlLk6GJQsqaUBKTNV-1">
          <mxGeometry x="65" y="-320" width="30" height="60" as="geometry" />
        </mxCell>
        <mxCell id="zuYxjx-_k26lUVq1GKM3-23" value="&lt;font style=&quot;font-size: 20px;&quot;&gt;Annotator A&lt;sub&gt;2&lt;/sub&gt;&lt;/font&gt;" style="shape=umlActor;verticalLabelPosition=bottom;verticalAlign=top;html=1;outlineConnect=0;strokeWidth=3;fontSize=28;" vertex="1" parent="WIyWlLk6GJQsqaUBKTNV-1">
          <mxGeometry x="195" y="-320" width="30" height="60" as="geometry" />
        </mxCell>
        <mxCell id="zuYxjx-_k26lUVq1GKM3-24" value="&lt;font size=&quot;1&quot; style=&quot;&quot;&gt;&lt;b style=&quot;font-size: 28px;&quot;&gt;D&lt;sub&gt;3&lt;/sub&gt;&lt;/b&gt;&lt;/font&gt;" style="shape=note;whiteSpace=wrap;html=1;backgroundOutline=1;darkOpacity=0.05;strokeWidth=3;" vertex="1" parent="WIyWlLk6GJQsqaUBKTNV-1">
          <mxGeometry x="300" y="-199" width="80" height="100" as="geometry" />
        </mxCell>
        <mxCell id="zuYxjx-_k26lUVq1GKM3-25" style="edgeStyle=orthogonalEdgeStyle;rounded=0;orthogonalLoop=1;jettySize=auto;html=1;exitX=0.5;exitY=1;exitDx=0;exitDy=0;strokeWidth=3;fontSize=28;" edge="1" parent="WIyWlLk6GJQsqaUBKTNV-1">
          <mxGeometry relative="1" as="geometry">
            <mxPoint x="270" y="-139" as="sourcePoint" />
            <mxPoint x="270" y="-139" as="targetPoint" />
          </mxGeometry>
        </mxCell>
        <mxCell id="zuYxjx-_k26lUVq1GKM3-26" value="&lt;font style=&quot;font-size: 20px;&quot;&gt;Annotator A&lt;sub&gt;3&lt;/sub&gt;&lt;/font&gt;" style="shape=umlActor;verticalLabelPosition=bottom;verticalAlign=top;html=1;outlineConnect=0;strokeWidth=3;fontSize=28;" vertex="1" parent="WIyWlLk6GJQsqaUBKTNV-1">
          <mxGeometry x="325" y="-319" width="30" height="60" as="geometry" />
        </mxCell>
        <mxCell id="zuYxjx-_k26lUVq1GKM3-30" value="&lt;font style=&quot;font-size: 20px;&quot;&gt;Annotator A&lt;sub&gt;1&lt;/sub&gt;&lt;/font&gt;" style="shape=umlActor;verticalLabelPosition=bottom;verticalAlign=top;html=1;outlineConnect=0;strokeWidth=3;fontSize=28;" vertex="1" parent="WIyWlLk6GJQsqaUBKTNV-1">
          <mxGeometry x="600" y="-319" width="30" height="60" as="geometry" />
        </mxCell>
        <mxCell id="zuYxjx-_k26lUVq1GKM3-31" value="&lt;font style=&quot;font-size: 20px;&quot;&gt;Annotator A&lt;sub&gt;2&lt;/sub&gt;&lt;/font&gt;" style="shape=umlActor;verticalLabelPosition=bottom;verticalAlign=top;html=1;outlineConnect=0;strokeWidth=3;fontSize=28;" vertex="1" parent="WIyWlLk6GJQsqaUBKTNV-1">
          <mxGeometry x="730" y="-319" width="30" height="60" as="geometry" />
        </mxCell>
        <mxCell id="zuYxjx-_k26lUVq1GKM3-32" value="&lt;font style=&quot;font-size: 20px;&quot;&gt;Annotator A&lt;sub&gt;3&lt;/sub&gt;&lt;/font&gt;" style="shape=umlActor;verticalLabelPosition=bottom;verticalAlign=top;html=1;outlineConnect=0;strokeWidth=3;fontSize=28;" vertex="1" parent="WIyWlLk6GJQsqaUBKTNV-1">
          <mxGeometry x="860" y="-318" width="30" height="60" as="geometry" />
        </mxCell>
        <mxCell id="zuYxjx-_k26lUVq1GKM3-33" value="&lt;font size=&quot;1&quot; style=&quot;&quot;&gt;&lt;b style=&quot;font-size: 28px;&quot;&gt;D&lt;sub&gt;1&lt;/sub&gt;&lt;/b&gt;&lt;/font&gt;" style="shape=note;whiteSpace=wrap;html=1;backgroundOutline=1;darkOpacity=0.05;strokeWidth=3;" vertex="1" parent="WIyWlLk6GJQsqaUBKTNV-1">
          <mxGeometry x="835" y="-199" width="80" height="100" as="geometry" />
        </mxCell>
        <mxCell id="zuYxjx-_k26lUVq1GKM3-34" value="&lt;font size=&quot;1&quot; style=&quot;&quot;&gt;&lt;b style=&quot;font-size: 28px;&quot;&gt;D&lt;sub&gt;3&lt;/sub&gt;&lt;/b&gt;&lt;/font&gt;" style="shape=note;whiteSpace=wrap;html=1;backgroundOutline=1;darkOpacity=0.05;strokeWidth=3;" vertex="1" parent="WIyWlLk6GJQsqaUBKTNV-1">
          <mxGeometry x="705" y="-199" width="80" height="100" as="geometry" />
        </mxCell>
        <mxCell id="zuYxjx-_k26lUVq1GKM3-35" value="&lt;font size=&quot;1&quot; style=&quot;&quot;&gt;&lt;b style=&quot;font-size: 28px;&quot;&gt;D&lt;sub&gt;2&lt;/sub&gt;&lt;/b&gt;&lt;/font&gt;" style="shape=note;whiteSpace=wrap;html=1;backgroundOutline=1;darkOpacity=0.05;strokeWidth=3;" vertex="1" parent="WIyWlLk6GJQsqaUBKTNV-1">
          <mxGeometry x="575" y="-199" width="80" height="100" as="geometry" />
        </mxCell>
      </root>
    </mxGraphModel>
  </diagram>
</mxfile>
